# Blender v2.79 (sub 0) OBJ File: 'Chair.blend'
# www.blender.org
mtllib Chair.mtl
o Cube
v -1.042483 4.418986 -1.063813
v -1.042483 4.418986 0.274409
v -2.322930 4.418986 0.274409
v -2.322929 4.418986 -1.063813
v -1.042482 5.699433 -1.063812
v -1.042483 5.699433 0.274409
v -2.322930 5.699433 0.274409
v -2.322930 5.699433 -1.063813
v 0.044521 4.418986 -1.063812
v 0.044521 4.418986 0.274409
v 0.044521 5.699433 -1.063812
v 0.044520 5.699433 0.274410
v 1.324968 4.418986 -1.063812
v 1.324968 4.418986 0.274410
v 1.324968 5.699433 -1.063812
v 1.324967 5.699433 0.274410
v -1.042483 4.418985 1.554856
v -2.322930 4.418985 1.554856
v -1.042483 5.699432 1.554856
v -2.322930 5.699432 1.554856
v 0.044521 4.418985 1.554856
v 0.044520 5.699432 1.554857
v 1.324968 4.418985 1.554857
v 1.324967 5.699433 1.554857
v -1.042483 4.418985 2.835303
v -2.322930 4.418985 2.835303
v -1.042484 5.699432 2.835303
v -2.322931 5.699432 2.835303
v 0.044520 4.418985 2.835303
v 0.044520 5.699432 2.835304
v 1.324967 4.418985 2.835304
v 1.324967 5.699432 2.835304
v -1.042483 -0.940632 -1.063813
v -1.042483 -0.940632 0.274409
v -2.322929 -0.940632 -1.063813
v -2.322930 -0.940632 0.274409
v 0.044521 -0.940632 -1.063812
v 0.044521 -0.940632 0.274409
v 1.324968 -0.940632 -1.063812
v 1.324968 -0.940632 0.274410
v -1.042483 -0.940632 1.554856
v -2.322930 -0.940632 1.554856
v 0.044520 -0.940633 2.835303
v 0.044521 -0.940632 1.554856
v 1.324968 -0.940632 1.554857
v 1.324967 -0.940633 2.835304
v -1.042483 -0.940633 2.835303
v -2.322930 -0.940633 2.835303
v -1.042482 11.415673 -1.063812
v -1.042483 11.415673 0.274409
v -2.322930 11.415673 -1.063813
v -2.322930 11.415673 0.274409
v 0.044521 11.415673 -1.063812
v 0.044520 11.415673 0.274410
v 1.324968 11.415673 -1.063812
v 1.324967 11.415673 0.274410
vn 0.0000 0.0000 -1.0000
vn 0.0000 -1.0000 -0.0000
vn 1.0000 0.0000 0.0000
vn -1.0000 -0.0000 -0.0000
vn -0.0000 0.0000 1.0000
vn -0.0000 1.0000 0.0000
usemtl Material
s off
f 9//1 13//1 39//1 37//1
f 5//1 8//1 51//1 49//1
f 10//2 14//2 23//2 21//2
f 14//3 16//3 24//3 23//3
f 3//4 7//4 8//4 4//4
f 5//1 1//1 4//1 8//1
f 8//4 7//4 52//4 51//4
f 1//1 5//1 11//1 9//1
f 2//2 1//2 9//2 10//2
f 12//5 16//5 56//5 54//5
f 13//3 15//3 16//3 14//3
f 9//1 11//1 15//1 13//1
f 16//6 12//6 22//6 24//6
f 17//3 25//3 47//3 41//3
f 17//2 21//2 29//2 25//2
f 23//3 24//3 32//3 31//3
f 2//5 3//5 36//5 34//5
f 2//2 10//2 21//2 17//2
f 3//2 2//2 17//2 18//2
f 6//6 7//6 20//6 19//6
f 12//6 6//6 19//6 22//6
f 7//4 3//4 18//4 20//4
f 27//5 25//5 29//5 30//5
f 25//5 27//5 28//5 26//5
f 30//5 29//5 31//5 32//5
f 19//6 20//6 28//6 27//6
f 24//6 22//6 30//6 32//6
f 22//6 19//6 27//6 30//6
f 20//4 18//4 26//4 28//4
f 23//3 31//3 46//3 45//3
f 33//2 34//2 36//2 35//2
f 38//2 37//2 39//2 40//2
f 44//2 45//2 46//2 43//2
f 42//2 41//2 47//2 48//2
f 10//4 9//4 37//4 38//4
f 14//5 10//5 38//5 40//5
f 3//4 4//4 35//4 36//4
f 13//3 14//3 40//3 39//3
f 18//1 17//1 41//1 42//1
f 29//4 21//4 44//4 43//4
f 25//5 26//5 48//5 47//5
f 26//4 18//4 42//4 48//4
f 1//3 2//3 34//3 33//3
f 21//1 23//1 45//1 44//1
f 4//1 1//1 33//1 35//1
f 31//5 29//5 43//5 46//5
f 49//6 51//6 52//6 50//6
f 53//6 54//6 56//6 55//6
f 49//6 50//6 54//6 53//6
f 11//1 5//1 49//1 53//1
f 15//1 11//1 53//1 55//1
f 16//3 15//3 55//3 56//3
f 7//5 6//5 50//5 52//5
f 6//5 12//5 54//5 50//5
